<?xml version="1.0" encoding="UTF-8"?>
<svg id="Layer_2" data-name="Layer 2" xmlns="http://www.w3.org/2000/svg" xmlns:xlink="http://www.w3.org/1999/xlink" viewBox="0 0 342.43 367.22">
  <defs>
    <style>
      .cls-1 {
        fill: url(#linear-gradient);
      }

      .cls-1, .cls-2, .cls-3, .cls-4, .cls-5, .cls-6, .cls-7, .cls-8, .cls-9, .cls-10, .cls-11, .cls-12, .cls-13, .cls-14, .cls-15 {
        stroke-width: 0px;
      }

      .cls-2 {
        fill: url(#linear-gradient-11);
      }

      .cls-3 {
        fill: url(#linear-gradient-12);
      }

      .cls-4 {
        fill: url(#linear-gradient-13);
      }

      .cls-5 {
        fill: url(#linear-gradient-10);
      }

      .cls-6 {
        fill: url(#linear-gradient-15);
      }

      .cls-7 {
        fill: url(#linear-gradient-14);
      }

      .cls-8 {
        fill: url(#linear-gradient-4);
      }

      .cls-9 {
        fill: url(#linear-gradient-2);
      }

      .cls-10 {
        fill: url(#linear-gradient-3);
      }

      .cls-11 {
        fill: url(#linear-gradient-8);
      }

      .cls-12 {
        fill: url(#linear-gradient-9);
      }

      .cls-13 {
        fill: url(#linear-gradient-7);
      }

      .cls-14 {
        fill: url(#linear-gradient-5);
      }

      .cls-15 {
        fill: url(#linear-gradient-6);
      }
    </style>
    <linearGradient id="linear-gradient" x1="100.88" y1="250.96" x2="119.21" y2="147.03" gradientUnits="userSpaceOnUse">
      <stop offset="0" stop-color="#9f7eb9"/>
      <stop offset=".16" stop-color="#a773a9"/>
      <stop offset=".47" stop-color="#be5780"/>
      <stop offset=".89" stop-color="#e32b3e"/>
      <stop offset="1" stop-color="#ed1f2d"/>
    </linearGradient>
    <linearGradient id="linear-gradient-2" x1="169.5" y1="232.76" x2="187.98" y2="127.96" xlink:href="#linear-gradient"/>
    <linearGradient id="linear-gradient-3" x1="146.17" y1="380.01" x2="210.66" y2="14.31" xlink:href="#linear-gradient"/>
    <linearGradient id="linear-gradient-4" x1="96.61" y1="300.46" x2="96.61" y2="259.71" gradientUnits="userSpaceOnUse">
      <stop offset="0" stop-color="#9f7eb9"/>
      <stop offset=".55" stop-color="#a86eaf"/>
      <stop offset="1" stop-color="#b25ea5"/>
    </linearGradient>
    <linearGradient id="linear-gradient-5" x1="117.56" y1="292.87" x2="117.56" y2="264.33" xlink:href="#linear-gradient-4"/>
    <linearGradient id="linear-gradient-6" x1="142.41" y1="289.64" x2="142.41" y2="252.64" xlink:href="#linear-gradient-4"/>
    <linearGradient id="linear-gradient-7" x1="161.53" y1="286.12" x2="161.53" y2="255.88" xlink:href="#linear-gradient-4"/>
    <linearGradient id="linear-gradient-8" x1="173.18" y1="284.73" x2="173.18" y2="261.19" xlink:href="#linear-gradient-4"/>
    <linearGradient id="linear-gradient-9" x1="188.65" y1="280.91" x2="188.65" y2="257.17" xlink:href="#linear-gradient-4"/>
    <linearGradient id="linear-gradient-10" x1="200.25" y1="277.23" x2="200.25" y2="248.57" xlink:href="#linear-gradient-4"/>
    <linearGradient id="linear-gradient-11" x1="228.89" y1="270.75" x2="228.89" y2="234.83" xlink:href="#linear-gradient-4"/>
    <linearGradient id="linear-gradient-12" x1="247.78" y1="264.44" x2="247.78" y2="234.45" xlink:href="#linear-gradient-4"/>
    <linearGradient id="linear-gradient-13" x1="263.58" y1="269.65" x2="263.58" y2="235.36" xlink:href="#linear-gradient-4"/>
    <linearGradient id="linear-gradient-14" x1="284.23" y1="255.29" x2="284.23" y2="223.41" xlink:href="#linear-gradient-4"/>
    <linearGradient id="linear-gradient-15" x1="297.56" y1="246.31" x2="297.56" y2="217.44" xlink:href="#linear-gradient-4"/>
  </defs>
  <g id="Layer_1-2" data-name="Layer 1">
    <g>
      <g>
        <path class="cls-1" d="m72.56,213.41c-4.18-32.65,7.39-58.08,32.68-64.79,24.74-6.56,39.61,7.68,42.75,36.41,3.19,28.91-6.48,57.84-31.77,64.54-24.74,6.56-39.98-7.58-43.66-36.17Zm51.96-22.16c-1.81-14.9-11.09-33.01-24.66-32.81-4.67,13.22-5.73,33.47-3.83,48.75,1.81,14.9,10.18,33.26,23.8,33.24,4.62-13.41,6.59-33.9,4.69-49.18Z"/>
        <path class="cls-9" d="m155.5,207.08c-1.31-10.84-1.87-22.48-3.61-34.2-1.86-12.89-5.01-24.04-8.64-29.67l7.64-2.03c19.1-5.06,21.62,11.05,24.14,27.16,1.84,12.09,2.35,23.55,3.76,34.75,1.19,8.88,2.83,18.03,13.13,20.89,5.19-14.96,5.77-40.68,3.6-55.48-2.24-15.78-5.7-26.65-13.33-35.61l7.28-1.93c14.92-3.95,24.95,1.58,29.19,33.01,4.36,32.6-6.15,62.75-27.62,68.44-23.29,6.17-33.17-5.39-35.53-25.34Z"/>
        <path class="cls-10" d="m328.96,166.67c-14.03-32.85-40.32-6.74-46.53,5.02-.49.82-.93,1.67-1.31,2.55-.02.04-.03.07-.03.07,0,0,0,0,0,0-.4.93-.75,1.88-1.04,2.85-2.57,8.67-6.91,24.29-9.12,31.94-11.66.09-19.04-12.33-23-27.26-1.13-4.29-1.84-9.9-1.92-16.07,6.45,2.29,13.19,3.49,21.2,1.37,15.47-4.1,26.41-21.58,22.6-35.95-3.46-13.07-17.65-18.09-31.29-14.48-30.75,8.15-41.97,41.48-32.82,76.01,5.74,21.65,19.79,31.31,39.8,26,20.2-5.35,27.97-22.56,25.03-42.52-1.02-6.93,6.51-11.71,10.06-13.65,39.45-12.44,31.93,128.03-67,159.83-84.66,27.21-147.69-16.96-162.2-31.3-.02-.24-.05-.47-.06-.66-.16-2.1-.89-8.46-1.89-17.2-3-26.49-8.24-89.6-8.63-110.99-.42-23.19-17.38-122.3,81.7-124.24,47.56-.93,75.85,40.66,82.41,82.44,0,0,11.19-46.63-21.8-82.71C165.82-3.08,93.15-22.12,43.44,39.91c-38.37,47.88-20.57,169.12-6.34,222.48,1.25,4.68,2.39,9.24,3.42,13.68.43,1.87.85,3.71,1.24,5.54-5.14.71-24.37,4.42-36.23,21.25-15.92,22.6,4,65.8,40.91,55.58,21.68-6.01,26.39-26.95,26.64-44.24,49.23,70.9,158,62.5,220.69,22.68,65.11-41.35,51.44-132.18,35.19-170.21Zm-76.71-40.47c6.43,1.49,12.68,5.23,15.06,14.19,4.05,15.3-4.85,22.86-21.19,22.19-.12-12.95,1.87-27.46,6.13-36.38ZM23.76,339.31s-7.71-5.04-.89-23.57c5.41-14.71,18.17-16.37,22.15-16.52,4.88,32.76,0,51.87-21.26,40.08Z"/>
      </g>
      <g>
        <path class="cls-8" d="m94.32,300.39c-.85-.1-1.65-.47-2.4-1.11-.75-.64-1.29-1.67-1.62-3.12-.46-2.01-.49-4.77-.1-8.27.4-3.5,1.15-7.05,2.28-10.64-1.42.22-2.51.55-3.27.99-.75.43-1.18,1.04-1.26,1.81.12,0,.27.13.47.42.2.29.34.6.41.93.12.54-.01.99-.4,1.35-.39.36-.93.56-1.62.62-.81.07-1.51-.1-2.1-.51-.59-.41-.98-1.04-1.18-1.88-.23-1.02-.06-1.99.51-2.89.57-.9,1.48-1.66,2.72-2.27,1.24-.61,2.69-.99,4.33-1.14.61-.06,1.37-.08,2.28-.07,1.48-4.12,3.26-7.55,5.33-10.29,2.08-2.74,4.32-4.24,6.72-4.51,1.39-.16,2.58-.08,3.57.23.26,11.25.51,22.5.77,33.74-2.08.25-4.17.48-6.25.71-.13-5.55-.26-11.1-.4-16.64-1.19-.39-2.26-.66-3.21-.81-.95-.15-1.94-.21-2.97-.2-.8,3.85-1.29,7.75-1.47,11.71-.17,3.95,0,7.09.53,9.39.26,1.14.65,1.96,1.18,2.46-1.07.11-2.03.11-2.88,0Zm8.47-37.04c-1.09.82-2.09,2.24-3,4.25-.92,2.01-1.7,4.41-2.37,7.21,2.18.21,4.06.55,5.65,1.02-.09-4.16-.19-8.31-.28-12.47Z"/>
        <path class="cls-14" d="m116.07,291.92c-.86-.78-1.46-1.88-1.78-3.3-.17-.72-.26-1.47-.27-2.24-.1-4.28-.19-8.56-.29-12.84-.45.06-.89.11-1.34.16-.02-.57-.04-1.14-.06-1.71.45-.05.89-.11,1.34-.16-.04-1.97-.07-3.94-.11-5.91,1.94-.53,3.88-1.06,5.81-1.6,0,1.09,0,1.73.03,1.93,0,.8.03,2.41.11,4.84.81-.11,1.62-.22,2.44-.33.02.57.04,1.14.06,1.71-.81.11-1.62.22-2.44.33.1,4.28.19,8.56.29,12.84,0,.63.05,1.12.13,1.48.23,1,.82,1.44,1.77,1.31.49-.07.83-.16,1.03-.27-.17,1.68-.55,2.85-1.16,3.51-.6.65-1.34,1.04-2.2,1.15-1.38.18-2.5-.12-3.36-.89Z"/>
        <path class="cls-15" d="m138.78,259.04c-1.82.35-3.05,1.28-3.71,2.79-.66,1.51-.59,3.94.18,7.28.25,1.1.53,1.84.84,2.24.3.4.46.63.48.68-1.57.25-2.81.09-3.74-.46-.92-.55-1.57-1.6-1.92-3.14-.49-2.1-.43-4.1.19-5.98.61-1.88,1.91-3.52,3.88-4.93,1.97-1.41,4.67-2.38,8.1-2.95.7-.12,1.64-.2,2.84-.25,2.14-.15,3.65-.3,4.52-.46,1.54-.27,2.81-.68,3.8-1.23-.02.28-.05.89-.07,1.83-.02.94-.26,1.78-.7,2.52-.45.74-1.16,1.3-2.12,1.69-1.71.3-3.81.38-6.3.21.08,3.04.15,6.07.23,9.11,2.12-.36,4.24-.72,6.36-1.1.02,1.13.05,2.26.07,3.39-2.12.38-4.24.74-6.36,1.1.12,5.74.24,11.48.36,17.22-2.09.35-4.18.7-6.27,1.03-.21-10.2-.42-20.4-.63-30.61Z"/>
        <path class="cls-13" d="m156.36,261.96c-.77-.52-1.26-1.23-1.48-2.13-.21-.91-.08-1.74.39-2.5.47-.76,1.16-1.22,2.05-1.39.9-.17,1.74.01,2.53.54.79.52,1.29,1.23,1.5,2.14.21.9.07,1.73-.42,2.48-.49.75-1.18,1.21-2.08,1.38-.9.17-1.73,0-2.5-.52Zm1.7,23.42c-.99-.67-1.68-1.83-2.07-3.48-.16-.69-.26-1.6-.3-2.73-.11-4.57-.22-9.14-.33-13.72,1.95-.36,3.91-.72,5.86-1.1.12,4.84.24,9.68.35,14.53-.01.43.04.88.15,1.35.13.55.35.91.66,1.1.31.18.77.22,1.37.1.79-.15,1.44-.63,1.96-1.44.52-.8.8-1.77.85-2.9.57-.11,1.14-.23,1.71-.34-.31,3.15-1.13,5.42-2.45,6.78-1.33,1.36-2.76,2.2-4.31,2.49-1.3.25-2.45.04-3.45-.64Z"/>
        <path class="cls-11" d="m166.23,263.37c1.96-.39,3.91-.78,5.87-1.19.02.88.05,1.76.07,2.65.73-1.01,1.42-1.81,2.06-2.4.64-.59,1.4-.98,2.27-1.17.87-.18,1.63-.03,2.27.46.64.49,1.07,1.16,1.27,2,.19.79.09,1.54-.28,2.25-.38.71-1.02,1.17-1.95,1.37-.6.13-1.03.07-1.3-.17-.27-.24-.53-.62-.76-1.15-.17-.34-.31-.58-.43-.72-.12-.15-.29-.2-.51-.15-.57.12-1.03.34-1.36.65-.34.31-.75.82-1.24,1.52.14,5.41.28,10.82.41,16.22-1.96.41-3.91.8-5.87,1.19-.17-7.12-.34-14.24-.52-21.36Z"/>
        <path class="cls-12" d="m183.41,280.68c-1.02-.3-1.84-.81-2.46-1.52-.62-.71-1.04-1.5-1.25-2.37-.21-.9-.19-1.73.08-2.48.26-.76.66-1.35,1.18-1.78.61-2.14,1.08-4.26,1.4-6.38.33-2.12.58-4.38.75-6.8,1.95-.72,3.89-1.45,5.84-2.18.96,3.44,2.09,7.14,3.37,11.1.52,1.59.87,2.76,1.05,3.49.15.62.22,1.15.2,1.58,1.1-1.03,1.92-1.95,2.45-2.73.57-.14,1.14-.28,1.71-.41-1.26,2.43-2.94,4.62-5.03,6.57-.59,1.03-1.41,1.87-2.47,2.53-1.06.66-2.18,1.13-3.34,1.39-1.3.3-2.46.29-3.48-.01Zm3.73-4.38c.54-.75.65-1.79.33-3.12-.19-.81-.55-1.94-1.06-3.37-1.01-3.03-1.68-5.07-2.01-6.11-.14,2.29-.63,5.11-1.47,8.44.7.19,1.13.59,1.28,1.22.12.52.06,1.02-.18,1.5-.24.48-.62.78-1.14.9-.57.13-.98.03-1.23-.29.23.98.6,1.66,1.1,2.03.5.37,1.19.47,2.06.27,1-.23,1.78-.72,2.31-1.47Z"/>
        <path class="cls-5" d="m198.76,276.56c-.87-.67-1.46-1.7-1.79-3.08-.17-.7-.26-1.44-.27-2.21-.1-4.27-.2-8.54-.29-12.81-.45.11-.9.22-1.34.32-.02-.57-.04-1.14-.06-1.7.45-.11.9-.21,1.35-.32-.04-1.97-.07-3.93-.11-5.9,1.95-.76,3.89-1.52,5.84-2.29,0,1.09,0,1.73.03,1.92,0,.8.03,2.41.11,4.82.82-.2,1.63-.41,2.45-.61.02.57.04,1.13.06,1.7-.82.21-1.63.41-2.45.61.1,4.27.2,8.54.29,12.8,0,.63.05,1.12.13,1.47.23.97.82,1.34,1.78,1.1.49-.12.83-.25,1.03-.39-.17,1.7-.56,2.92-1.16,3.64-.6.73-1.34,1.2-2.21,1.41-1.39.35-2.51.18-3.38-.5Z"/>
        <path class="cls-2" d="m224.63,270.64c-1.55-.24-2.84-.82-3.86-1.75-1.03-.93-1.72-2.14-2.08-3.63-.3-1.26-.31-2.49-.02-3.67.29-1.18.82-2.2,1.59-3.06.77-.86,1.71-1.44,2.81-1.75,1.02-.28,1.94-.27,2.75.03.82.3,1.42.88,1.81,1.71-1.51.43-2.62,1.17-3.34,2.21-.71,1.04-.9,2.24-.58,3.59.3,1.23.91,2.12,1.85,2.65.94.53,2.03.62,3.28.26,1.54-.44,2.69-1.32,3.45-2.63.76-1.31.95-2.74.58-4.28-.32-1.34-1.01-2.51-2.05-3.49-1.05-.98-2.53-2.12-4.46-3.41-2-1.33-3.55-2.53-4.66-3.59-1.11-1.06-1.84-2.35-2.21-3.87-.36-1.49-.26-2.95.3-4.38.56-1.42,1.49-2.69,2.81-3.79,1.32-1.1,2.91-1.92,4.77-2.45,2.36-.67,4.37-.68,6.04,0,1.67.67,2.73,1.92,3.17,3.75.29,1.2.22,2.26-.21,3.19-.43.93-1.14,1.53-2.13,1.83-1.1.33-2.1.14-2.98-.55.46-.56.76-1.22.93-1.97.16-.75.16-1.49-.02-2.2-.22-.92-.67-1.56-1.36-1.95-.68-.38-1.5-.44-2.46-.16-1.16.33-2.02,1.01-2.56,2.04-.54,1.03-.66,2.17-.36,3.43.28,1.15.87,2.12,1.77,2.92.91.8,2.26,1.77,4.06,2.9,1.46.89,2.65,1.67,3.58,2.35.93.68,1.78,1.52,2.57,2.52.79,1,1.34,2.18,1.67,3.52.44,1.83.33,3.64-.35,5.44-.67,1.8-1.8,3.39-3.38,4.78-1.58,1.39-3.46,2.4-5.64,3.03-1.83.53-3.52.67-5.07.44Z"/>
        <path class="cls-3" d="m242.62,240.75c-.77-.42-1.26-1.07-1.48-1.95-.21-.88-.08-1.73.39-2.54.47-.82,1.16-1.36,2.05-1.64.89-.28,1.74-.2,2.52.22.79.43,1.29,1.08,1.5,1.95.21.88.07,1.72-.42,2.53-.49.81-1.18,1.36-2.08,1.64-.9.28-1.73.21-2.5-.21Zm1.7,23.21c-.99-.55-1.68-1.63-2.07-3.22-.16-.67-.26-1.56-.3-2.7-.11-4.56-.22-9.12-.33-13.68,1.95-.6,3.91-1.2,5.86-1.82.12,4.83.24,9.65.35,14.48-.01.43.04.88.15,1.33.13.53.35.87.66,1.01.31.14.77.12,1.36-.07.79-.25,1.44-.81,1.96-1.68.52-.87.8-1.87.85-3,.57-.18,1.14-.37,1.71-.55-.31,3.19-1.12,5.55-2.45,7.08-1.32,1.53-2.76,2.54-4.31,3.02-1.3.41-2.45.34-3.44-.21Z"/>
        <path class="cls-4" d="m260.64,269.39c-1.03-.37-1.69-1.18-1.99-2.43-.37-1.51-.04-2.93.99-4.25,1.02-1.33,2.42-2.62,4.2-3.88,0-.76-.02-1.51-.02-2.27-1.03,1.92-2.48,3.2-4.34,3.82-1.54.51-2.96.42-4.24-.28-1.28-.7-2.19-2.15-2.72-4.35-.47-1.96-.58-4.16-.3-6.58.28-2.42,1.02-4.64,2.25-6.65,1.22-2.01,2.93-3.38,5.12-4.11,1.11-.37,1.98-.46,2.61-.27.63.19,1.02.59,1.17,1.19.02.08.04.16.06.24-.02-.74-.04-1.48-.05-2.21,1.95-.66,3.9-1.33,5.85-2,.15,6.59.3,13.17.45,19.76,1.2-.87,2.08-1.87,2.66-2.99.58-1.12.94-2.6,1.07-4.46.57-.2,1.14-.4,1.7-.6-.16,2.6-.73,4.67-1.7,6.21-.98,1.53-2.2,2.77-3.68,3.71.03,1.02.06,2.04.08,3.06.08,2.75-.42,4.83-1.51,6.25-1.09,1.42-2.48,2.42-4.15,2.99-1.3.44-2.46.47-3.49.1Zm2.24-15.22c.51-.77.78-1.68.79-2.71-.07-3.37-.14-6.73-.21-10.1-.08-.32-.29-.59-.64-.84-.35-.24-.81-.26-1.38-.07-1.08.36-1.91,1.3-2.48,2.82-.57,1.52-.89,3.23-.95,5.12-.07,1.9.06,3.51.38,4.83.32,1.32.72,2.11,1.21,2.35.48.24,1.01.27,1.58.07.62-.21,1.19-.7,1.71-1.48Zm.69,10.97c.28-.76.41-1.74.38-2.96-.01-.41-.02-.82-.04-1.23-2.42,1.85-3.48,3.42-3.16,4.71.08.34.28.61.59.79.31.18.68.2,1.11.06.46-.16.83-.61,1.12-1.36Z"/>
        <path class="cls-7" d="m285.87,249.7c-.98-.57-1.62-1.48-1.93-2.74-.13-.55-.22-1.2-.25-1.95-.03-.74-.06-1.47-.07-2.18-.01-.71-.01-1.17,0-1.37,0-1-.03-1.98-.06-2.94-.03-.96-.11-1.72-.24-2.27-.33-1.34-.98-1.83-1.95-1.48-.7.26-1.24.82-1.62,1.68-.38.87-.6,1.9-.66,3.09.11,4.55.22,9.11.33,13.66-1.95.7-3.89,1.4-5.84,2.09-.22-9.65-.44-19.3-.66-28.95,1.94-.97,3.87-1.94,5.81-2.93.08,3.58.16,7.15.23,10.73.99-1.96,2.39-3.27,4.2-3.94,1.38-.51,2.56-.54,3.55-.11.99.43,1.67,1.39,2.03,2.89.19.76.3,1.64.34,2.64.04,1,.04,2.24.02,3.71-.02.89-.02,1.76,0,2.6.01.84.07,1.48.18,1.93.13.52.35.88.66,1.08.31.2.77.18,1.36-.04.81-.31,1.39-.84,1.74-1.58.35-.75.62-1.8.82-3.17.57-.22,1.13-.44,1.7-.65-.29,3.26-.97,5.64-2.04,7.12-1.07,1.48-2.3,2.49-3.71,3.02-1.65.62-2.96.65-3.93.08Z"/>
        <path class="cls-6" d="m296.08,245.89c-.86-.55-1.45-1.5-1.78-2.83-.17-.68-.25-1.4-.27-2.17-.1-4.25-.19-8.51-.29-12.76-.44.17-.89.34-1.33.51-.02-.56-.04-1.13-.06-1.69.44-.17.89-.34,1.33-.51-.04-1.96-.07-3.92-.11-5.88,1.93-1.03,3.86-2.06,5.79-3.1,0,1.09,0,1.73.03,1.92,0,.81.03,2.41.11,4.81.81-.32,1.62-.64,2.42-.96.02.56.04,1.13.06,1.69-.81.32-1.62.64-2.42.96.1,4.25.19,8.51.29,12.76,0,.63.05,1.11.13,1.45.23.94.82,1.22,1.76.85.48-.19.83-.37,1.02-.53-.17,1.73-.55,2.99-1.15,3.8-.6.81-1.33,1.38-2.19,1.72-1.37.54-2.49.53-3.35-.03Z"/>
      </g>
    </g>
  </g>
</svg>