<?xml version="1.0" encoding="UTF-8"?>
<svg id="Layer_2" data-name="Layer 2" xmlns="http://www.w3.org/2000/svg" viewBox="0 0 329.44 396.3">
  <defs>
    <style>
      .cls-1 {
        fill: #071e26;
      }

      .cls-1, .cls-2 {
        stroke-width: 0px;
      }

      .cls-2 {
        fill: #081e27;
      }

      .cls-3 {
        fill: none;
        stroke: #358fae;
        stroke-miterlimit: 10;
        stroke-width: 2.42px;
      }
    </style>
  </defs>
  <g id="Layer_1-2" data-name="Layer 1">
    <g>
      <g>
        <path class="cls-1" d="m3.22,118.79c-.88,0-3.22,0-3.22-1.5,0-.38.19-.78.6-1.24.34-.38.67-.69,1.01-.94l.37-.25c3.25-2.44,7.69-7.99,13.16-16.48,5.51-8.54,10.21-16.55,13.99-23.81l5.72-10.87c4.46-8.25,8.84-15.77,13.01-22.36,4.13-6.53,7.59-11.59,10.27-15.04,2.65-3.4,5.02-6.28,7.06-8.55,2.08-2.31,3.55-3.75,4.51-4.39l1.38-.91s.08-.14.08-.2c0,0-.18-.56-3.08-.56-2.17,0-4.36.61-6.52,1.82-2.19,1.23-4.06,2.71-5.57,4.4-1.54,1.72-2.93,3.48-4.13,5.21-1.21,1.75-2.12,3.22-2.7,4.39l-.91,1.94c-.15.48-.67,2.17-1.9,2.17-2.53,0-2.53-4.23-2.53-5.62,0-5.99,2.63-10.64,7.83-13.83,5.11-3.13,11.49-4.72,18.96-4.72,9.97,0,11.34,1.22,11.34,2.53,0,.74-.67,1.36-2.18,2.02-2.76,1.38-7.09,6.7-12.85,15.8-5.82,9.21-10.95,18.12-15.25,26.5l-6.64,12.82c-10.65,20.99-18.34,34.35-22.84,39.7-6.88,7.96-13.26,11.99-18.98,11.99Z"/>
        <path class="cls-1" d="m63.86,98.2c-1.39,0-2.19-.88-2.19-2.41,0-1.62.67-3.98,2.05-7.21,1.34-3.13,2.71-5.92,4.09-8.3l1.85-3.2c-.11.1-.23.22-.36.35-2.28,2.5-4.92,5.23-7.84,8.07-2.91,2.84-5.33,5.1-7.17,6.72l-2.64,2.29c-3.13,2.41-5.49,3.57-7.25,3.57-1.42,0-3.1-.78-3.1-4.47,0-1.37.36-3.36,1.11-6.1.73-2.72,1.29-4.5,1.68-5.45,1.75-4.27,3.98-8.5,6.63-12.57,2.64-4.06,5.8-7.99,9.39-11.7,3.62-3.74,7.89-6.8,12.7-9.1,4.82-2.32,9.89-3.49,15.07-3.49,3,0,7,.26,7,2.53,0,1.15-1.16,1.73-3.45,1.73-6.83,0-13.33,2.97-19.33,8.81-6.07,5.92-11.05,12.82-14.81,20.49-1.02,2.05-1.54,3.77-1.54,5.12,0,.45.07.68.22.68.52,0,1.49-.31,3.16-1.8.91-.84,2.15-1.95,3.72-3.32,1.54-1.35,4.08-3.99,7.56-7.85,3.48-3.86,6.27-7.49,8.29-10.79.3-.61.81-1.37,1.46-2.22.68-.88,1.93-2.02,3.82-3.48,1.93-1.49,3.9-2.24,5.85-2.24,1.8,0,2.07.87,2.07,1.39,0,.28-.13.61-.43,1.1-.28.57-1.15,2.11-2.57,4.57-1.41,2.44-2.73,4.74-3.94,6.92-1.22,2.17-2.51,4.53-3.88,7.09-1.4,2.6-2.46,4.74-3.24,6.54-1,2.28-1.15,3.13-1.15,3.43.03,0,.06.01.09.01.55,0,2.35-.89,7.84-6.37,3.32-3.48,7.28-7.82,11.76-12.9.24-.25.58-.55,1.01-.55.13,0,.81.05.81,1.04,0,1.59-.62,3.14-1.85,4.61-7.49,8.33-13.9,14.93-19.05,19.62-6.5,5.95-10.9,8.85-13.44,8.85Z"/>
        <path class="cls-1" d="m66.95,163.19c-2.24,0-3.33-2.77-3.33-8.48,0-7.85,2.84-16.5,8.44-25.71,6.04-9.85,15.47-20.1,28.05-30.47,2.38-4.41,5.76-10.83,9.92-18.92l3.77-7.36c-2.48,2.83-5.09,5.63-7.76,8.32-3.18,3.22-5.55,5.53-7.23,7.06l-2.52,2.29c-5.87,5.56-9.97,8.27-12.52,8.27-.66,0-2.19-.26-2.19-2.64,0-1.61.61-3.94,1.88-7.14,1.23-3.1,2.47-5.83,3.69-8.12l1.82-3.54c6.4-11.95,11.19-20.06,14.24-24.11,1.57-2.04,3.5-3.76,5.77-5.12,2.33-1.41,4.11-2.09,5.45-2.09,1.6,0,1.72,1.06,1.72,1.39,0,.41-.17.91-.53,1.54-.1.19-.73,1.26-4.7,7.63-2.96,4.73-5.37,8.85-7.19,12.27-6.51,11.93-7.48,14.91-7.48,15.63.07.05.17.07.29.07.46,0,1.31-.4,2.99-1.78,4.92-4.25,10.41-10.04,16.28-17.2,3.26-3.49,6.7-8.08,10.26-13.68,1.04-1.6,2.58-2.99,4.61-4.14,2.04-1.15,3.92-1.74,5.61-1.74,1.01,0,1.61.56,1.61,1.5l-.96,2.4c-1.1,1.96-3.49,6.15-7.18,12.59-3.7,6.44-5.77,10.08-6.23,10.92-.61,1.14-2.01,3.6-4.18,7.39l-3.06,5.33c3.66-3.01,6.83-5.71,9.43-8.05,3.31-3.47,7.27-7.81,11.74-12.88.25-.25.59-.55,1.01-.55.13,0,.81.05.81,1.04,0,1.58-.62,3.13-1.85,4.61-3.38,3.68-6.28,6.82-8.72,9.41-3.21,3.36-9,8.31-17.23,14.71l-2.82,5.31c-14.66,26.96-24.91,44.76-30.47,52.92-.53.83-1.22,1.85-2.07,3.04-.85,1.19-2.25,2.83-4.17,4.87-2.04,2.16-3.67,3.21-5,3.21Zm28.33-55.93c-8.58,7.8-15.08,15.24-19.36,22.13-.62.92-1.33,2.11-2.16,3.58-.83,1.48-1.98,4.03-3.4,7.6-1.42,3.54-2.13,6.53-2.13,8.88,0,1.02.15,1.32.2,1.39.02-.04.39-.15,1.22-.95.73-.69,1.36-1.42,1.88-2.14l.79-1.14c7.05-11.03,14.77-24.25,22.97-39.34Z"/>
        <path class="cls-1" d="m163.06,98.31c-7.91,0-14.4-.27-19.29-.81-1.2-.1-1.89-.9-1.89-2.18,0-.7.17-1.4.52-2.09,4.28-9.61,12.4-24.31,24.11-43.69l-4.14-.09c-1.86,0-2.06-1.05-2.06-1.5,0-.8.4-1.52,1.2-2.12.75-.57,1.54-.86,2.36-.86h5.51l13.67-21.92c1.07-1.93,1.63-3.72,1.63-5.3,0-1.05-.22-1.92-.67-2.68-.44-.75-.89-1.25-1.33-1.51l-.8-.46c-.88-.48-1.32-1.08-1.32-1.76,0-.47.21-.9.6-1.24.34-.29.71-.48,1.09-.58l.47-.11c7.9-.47,16.15-.7,24.62-.7,6.98,0,12.69.19,16.99.58h0c1.41,0,2.24.75,2.24,2.07,0,.19-.04.56-.38,1.46-2.52,6.34-5.12,11.38-7.74,15.01-.56.57-1.13.82-1.74.82-.49,0-1.61-.2-1.61-2.07.39-1.55.57-3.08.57-4.69,0-5.92-2.88-8.8-8.8-8.8h-.46c-3.68,0-6.34,1-7.9,2.98-3.86,4.77-9.07,13.09-15.51,24.75-.66,1.11-1.44,2.46-2.36,4.05h16.15c1.56,0,1.73.89,1.73,1.27,0,.63-.38,1.29-1.15,2.03-.74.7-1.57,1.1-2.46,1.19-4.74.23-10.06.34-15.84.34h-1.03c-10.58,19.24-16.98,32.46-19.01,39.29-.29.9-.43,1.66-.43,2.36s0,2.85,5.48,2.85c1.61,0,3.39-.32,5.31-.95,1.93-.63,4.34-1.77,7.16-3.38,2.81-1.62,6.02-4.22,9.54-7.74,3.56-3.56,7.23-7.92,10.92-12.98.52-.96,1.41-1.5,2.53-1.5.94,0,1.5.56,1.5,1.5,0,.16-.03.41-.26,1.1-3.68,9.43-8.4,17.94-14.05,25.34-.46,1.13-1.77,1.94-3.8,2.28-6.36.31-13.03.47-19.89.47Z"/>
        <path class="cls-1" d="m218.79,98.2c-1.39,0-2.18-.88-2.18-2.41,0-1.62.67-3.98,2.05-7.21,1.34-3.13,2.71-5.92,4.09-8.3l1.85-3.2c-.11.1-.23.22-.36.35-2.3,2.53-4.94,5.25-7.84,8.07-2.91,2.84-5.33,5.1-7.17,6.72l-2.63,2.29c-3.13,2.41-5.5,3.57-7.25,3.57-1.42,0-3.1-.78-3.1-4.47,0-1.37.36-3.36,1.11-6.1.73-2.72,1.29-4.5,1.68-5.45,1.75-4.27,3.98-8.5,6.63-12.57,2.64-4.06,5.8-7.99,9.39-11.7,3.62-3.74,7.89-6.8,12.7-9.1,4.82-2.32,9.89-3.49,15.07-3.49,3,0,7,.26,7,2.53,0,1.15-1.16,1.73-3.45,1.73-6.83,0-13.33,2.97-19.33,8.81-6.07,5.92-11.05,12.81-14.81,20.49-1.02,2.05-1.54,3.77-1.54,5.12,0,.31.04.68.22.68.52,0,1.49-.31,3.16-1.8.91-.84,2.15-1.95,3.72-3.32,1.54-1.35,4.08-3.99,7.56-7.85,3.48-3.86,6.27-7.49,8.29-10.79.3-.61.81-1.37,1.46-2.22.68-.88,1.93-2.02,3.82-3.48,1.93-1.49,3.9-2.24,5.85-2.24,1.8,0,2.07.87,2.07,1.39,0,.28-.13.61-.43,1.1-.28.57-1.15,2.11-2.57,4.57-1.41,2.44-2.73,4.74-3.94,6.92-1.22,2.17-2.51,4.53-3.88,7.09-1.4,2.6-2.46,4.74-3.24,6.54-1,2.28-1.15,3.13-1.15,3.43.03,0,.06.01.09.01.55,0,2.35-.89,7.84-6.37,3.32-3.48,7.28-7.82,11.76-12.9.24-.25.58-.55,1.01-.55.08,0,.81.03.81,1.04,0,1.58-.62,3.13-1.85,4.61-7.49,8.32-13.89,14.92-19.05,19.62-6.5,5.95-10.9,8.85-13.44,8.85Z"/>
        <path class="cls-1" d="m246.13,99.68c-5.93,0-8.94-2.39-8.94-7.1s2.54-8.8,7.56-12.48c2.34-1.72,4.92-2.87,7.67-3.43h.03c.95,0,1.24.55,1.24,1.03,0,.31-.13.61-.4.87-1.89,1.44-3.67,3.66-5.34,6.62-1.66,2.95-2.5,5.55-2.5,7.72,0,2.53,1.22,2.85,2.28,2.85,1.38,0,2.77-.59,4.14-1.75,1.43-1.21,2.52-2.45,3.25-3.68l1.15-1.85c1.48-2.37,2.74-6.23,3.75-11.47,1.02-5.3,1.69-10.05,1.99-14.12,0,0,.34-6.23.34-6.25l-11.1,13.08c-1.18,1.4-1.72,1.69-2.16,1.69-.56,0-1.16-.36-1.16-1.38,0-1.15.32-2.06.97-2.7l.99-1.21c8.64-9.71,13.63-15.64,14.83-17.66,1.2-1.84,2.96-3.44,5.24-4.78,2.23-1.27,4.86-1.91,7.85-1.91,1.08,0,1.73.56,1.73,1.5,0,.62-.42,1.14-1.24,1.55-.17.06-.38.16-.76.45-.22.17-.71.63-1.75,1.81-.84.95-1.6,2.06-2.27,3.32-.66,1.25-1.25,3.03-1.77,5.29-.52,2.26-.79,4.81-.79,7.59,0,8.79-.86,15.53-2.55,20-1.4,3.82-3.66,7.07-6.69,9.68-3.02,2.59-5.87,4.38-8.48,5.31-2.61.93-5,1.4-7.12,1.4Z"/>
        <path class="cls-1" d="m270.62,98.89c-.82,0-2.19-.34-2.19-2.65,0-1.69.61-4.11,1.87-7.42,1.21-3.18,2.45-6.05,3.68-8.52l1.84-3.56c1.76-3.14,4.65-8.47,8.69-16.02,3.95-7.38,7.9-14.59,11.74-21.41,3.56-6.33,6.97-12.15,10.16-17.32h-7.99c-1.5,0-1.73-.72-1.73-1.15,0-.6.39-1.14,1.19-1.64.71-.44,1.47-.66,2.26-.66,1.63,0,4.46-.03,8.48-.11,3.66-5.74,6.85-10.37,9.48-13.74,3.3-4.15,4.61-4.68,5.38-4.68.32,0,1.39.12,1.39,1.61,0,1.71-1.45,5.17-4.42,10.58l-3.41,6.23h10.8c1.46,0,1.61.81,1.61,1.15,0,1.1-.68,2.42-3.91,2.42h-10.4c-18.23,34.56-26.76,50.67-27.65,52.23-3.91,7.16-4.73,10.02-4.73,11.15.04.02.09.03.15.03.61,0,2.58-1.13,8.7-6.98,3.16-3.16,7.43-7.81,12.66-13.8.25-.25.6-.55,1.01-.55.14,0,.82.05.82,1.04,0,1.58-.62,3.13-1.85,4.61-5.68,6.29-10.73,11.58-15.03,15.72-9.35,9.04-15.44,13.44-18.6,13.44Z"/>
        <path class="cls-1" d="m79.54,11.45c-2.9,1.45-7.27,6.79-13.1,16.02-5.83,9.23-10.93,18.08-15.27,26.54l-6.64,12.82c-10.68,21.05-18.27,34.25-22.77,39.59-6.79,7.86-12.97,11.78-18.54,11.78-1.76,0-2.63-.3-2.63-.91,0-.23.15-.51.46-.86.31-.34.61-.63.91-.85l.35-.23c3.35-2.52,7.8-8.07,13.33-16.65,5.53-8.58,10.2-16.53,14.01-23.86l5.72-10.87c4.5-8.32,8.83-15.75,12.99-22.31,4.15-6.56,7.57-11.56,10.24-14.99,2.67-3.43,5.02-6.27,7.04-8.52,2.02-2.25,3.49-3.68,4.4-4.29l1.38-.91c.23-.23.34-.46.34-.69,0-.76-1.22-1.15-3.66-1.15-2.29,0-4.56.63-6.81,1.89-2.25,1.26-4.16,2.77-5.72,4.52-1.56,1.75-2.96,3.51-4.18,5.26-1.22,1.76-2.14,3.24-2.74,4.46l-.91,1.94c-.38,1.22-.84,1.83-1.38,1.83-1.29,0-1.94-1.68-1.94-5.03,0-5.8,2.52-10.24,7.55-13.33,5.03-3.09,11.25-4.64,18.65-4.64s10.76.65,10.76,1.95c0,.46-.61.95-1.83,1.49Z"/>
        <path class="cls-1" d="m76.9,88.92c-6.33,5.8-10.68,8.7-13.04,8.7-1.07,0-1.6-.61-1.6-1.83,0-1.53.67-3.85,2-6.98,1.33-3.12,2.69-5.87,4.06-8.24l2.06-3.55c.3-.53.46-.88.46-1.03s-.08-.23-.23-.23c-.31,0-.88.42-1.72,1.26-2.29,2.52-4.9,5.21-7.84,8.06-2.94,2.86-5.32,5.09-7.15,6.7l-2.63,2.29c-2.97,2.29-5.27,3.43-6.87,3.43s-2.52-1.29-2.52-3.89c0-1.29.36-3.28,1.09-5.95.72-2.67,1.27-4.46,1.66-5.38,1.75-4.27,3.95-8.43,6.58-12.47,2.63-4.04,5.74-7.91,9.33-11.61,3.59-3.7,7.76-6.7,12.53-8.98,4.77-2.29,9.71-3.43,14.82-3.43,4.27,0,6.41.65,6.41,1.94,0,.76-.96,1.15-2.86,1.15-7.02,0-13.6,2.99-19.74,8.98-6.14,5.99-11.12,12.87-14.93,20.65-1.07,2.14-1.6,3.93-1.6,5.38,0,.84.26,1.26.8,1.26.91,0,2.09-.65,3.55-1.94.91-.84,2.15-1.95,3.72-3.32,1.56-1.37,4.1-4,7.61-7.89,3.51-3.89,6.3-7.51,8.36-10.87.3-.61.78-1.33,1.43-2.17.65-.84,1.89-1.97,3.72-3.38,1.83-1.41,3.66-2.12,5.5-2.12.99,0,1.49.27,1.49.8,0,.15-.12.42-.35.8-.3.61-1.16,2.14-2.57,4.58-1.41,2.44-2.73,4.75-3.95,6.92-1.22,2.18-2.52,4.54-3.89,7.09s-2.46,4.75-3.26,6.58c-.8,1.83-1.2,3.06-1.2,3.66,0,.46.19.69.57.69,1.14,0,3.93-2.21,8.35-6.64,3.35-3.51,7.28-7.82,11.79-12.93.23-.23.42-.35.57-.35s.23.15.23.46c0,1.45-.57,2.86-1.71,4.24-7.48,8.32-13.81,14.84-19,19.57Z"/>
        <path class="cls-1" d="m110.54,79.88l4.81-9.38c0-.23-.08-.35-.23-.35s-.34.12-.57.35c-2.82,3.28-5.8,6.5-8.92,9.67-3.13,3.17-5.53,5.51-7.21,7.04l-2.52,2.29c-5.72,5.42-9.77,8.12-12.13,8.12-1.06,0-1.6-.69-1.6-2.06,0-1.53.62-3.83,1.83-6.92,1.22-3.09,2.44-5.78,3.66-8.06l1.83-3.55c6.41-11.97,11.14-19.98,14.19-24.03,1.53-1.98,3.39-3.64,5.61-4.97,2.21-1.33,3.93-2,5.15-2,.76,0,1.14.27,1.14.8,0,.3-.15.72-.46,1.26-.15.31-1.71,2.84-4.69,7.61-2.98,4.77-5.38,8.87-7.21,12.3-5.03,9.23-7.55,14.53-7.55,15.9,0,.53.23.8.68.8.69,0,1.87-.69,3.55-2.06,4.96-4.27,10.42-10.03,16.36-17.28,3.28-3.51,6.71-8.09,10.3-13.73.99-1.53,2.46-2.84,4.4-3.95,1.95-1.1,3.72-1.66,5.32-1.66.69,0,1.03.31,1.03.91l-.91,2.18c-1.07,1.91-3.45,6.09-7.15,12.53-3.7,6.44-5.78,10.09-6.24,10.93-.61,1.14-2,3.6-4.18,7.38-2.17,3.77-3.72,6.46-4.63,8.06,4.81-3.89,8.77-7.24,11.9-10.07,3.35-3.51,7.28-7.82,11.78-12.93.23-.23.42-.35.57-.35s.23.15.23.46c0,1.45-.57,2.86-1.72,4.24-3.36,3.66-6.26,6.79-8.7,9.38-3.2,3.36-8.92,8.24-17.16,14.65l-2.97,5.5c-14.72,27.08-24.87,44.7-30.44,52.86-.53.84-1.22,1.85-2.06,3.03-.84,1.18-2.21,2.79-4.12,4.81s-3.44,3.03-4.58,3.03c-1.83,0-2.75-2.63-2.75-7.89,0-7.78,2.79-16.25,8.35-25.4,6.03-9.84,15.33-19.95,27.92-30.32,2.52-4.58,5.87-10.94,10.07-19.11Zm-35.13,49.2c-.61.91-1.33,2.12-2.18,3.6-.84,1.49-1.98,4.04-3.43,7.67-1.45,3.62-2.18,6.65-2.18,9.09,0,1.3.23,1.95.69,1.95.38,0,.95-.36,1.71-1.09.76-.73,1.41-1.47,1.95-2.23l.8-1.15c7.55-11.82,15.75-25.93,24.6-42.34-9.92,8.7-17.24,16.86-21.97,24.49Z"/>
        <path class="cls-1" d="m194.87,48.76c-4.73.23-9.99.34-15.79.34h-1.38c-10.75,19.53-17.16,32.77-19.22,39.7-.3.92-.46,1.76-.46,2.52,0,2.29,2.02,3.43,6.06,3.43,1.68,0,3.51-.32,5.5-.97,1.98-.65,4.4-1.79,7.27-3.43,2.86-1.64,6.08-4.25,9.67-7.84,3.59-3.59,7.25-7.93,10.98-13.04.46-.84,1.15-1.26,2.06-1.26.61,0,.91.31.91.91,0,.15-.08.46-.23.92-3.66,9.38-8.32,17.77-13.96,25.17-.46,1.07-1.6,1.75-3.43,2.06-6.26.3-12.86.46-19.8.46-7.93,0-14.34-.27-19.22-.8-.91-.08-1.37-.61-1.37-1.6,0-.61.15-1.22.46-1.83,4.35-9.76,12.55-24.6,24.6-44.51l-5.15-.11c-.99,0-1.49-.31-1.49-.92s.32-1.16.97-1.66c.65-.5,1.32-.74,2-.74h5.83l13.85-22.2c1.15-2.06,1.71-3.93,1.71-5.61,0-1.15-.25-2.13-.74-2.97-.5-.84-1.01-1.41-1.54-1.72l-.8-.46c-.69-.38-1.03-.8-1.03-1.26,0-.3.13-.57.4-.8.27-.23.56-.38.86-.46l.46-.11c7.86-.46,16.02-.69,24.49-.69,7.02,0,12.66.19,16.93.57,1.15,0,1.72.5,1.72,1.49,0,.23-.12.65-.34,1.26-2.52,6.33-5.08,11.29-7.67,14.88-.38.38-.8.57-1.26.57-.68,0-1.03-.5-1.03-1.49.38-1.45.57-3.01.57-4.69,0-6.25-3.13-9.38-9.38-9.38h-.46c-3.89,0-6.68,1.07-8.36,3.2-3.89,4.81-9.08,13.09-15.56,24.83-.76,1.3-1.72,2.94-2.86,4.92h17.16c.76,0,1.14.23,1.14.69s-.32.99-.97,1.6c-.65.61-1.35.95-2.12,1.03Z"/>
        <path class="cls-1" d="m231.83,88.92c-6.33,5.8-10.68,8.7-13.04,8.7-1.07,0-1.6-.61-1.6-1.83,0-1.53.67-3.85,2-6.98,1.33-3.12,2.69-5.87,4.06-8.24l2.06-3.55c.3-.53.46-.88.46-1.03s-.08-.23-.23-.23c-.31,0-.88.42-1.72,1.26-2.29,2.52-4.9,5.21-7.84,8.06-2.94,2.86-5.32,5.09-7.15,6.7l-2.63,2.29c-2.97,2.29-5.27,3.43-6.87,3.43s-2.52-1.29-2.52-3.89c0-1.29.36-3.28,1.09-5.95.72-2.67,1.27-4.46,1.66-5.38,1.75-4.27,3.95-8.43,6.58-12.47,2.63-4.04,5.74-7.91,9.33-11.61,3.59-3.7,7.76-6.7,12.53-8.98,4.77-2.29,9.71-3.43,14.82-3.43,4.27,0,6.41.65,6.41,1.94,0,.76-.96,1.15-2.86,1.15-7.02,0-13.6,2.99-19.74,8.98-6.14,5.99-11.12,12.87-14.93,20.65-1.07,2.14-1.6,3.93-1.6,5.38,0,.84.26,1.26.8,1.26.91,0,2.09-.65,3.55-1.94.91-.84,2.15-1.95,3.72-3.32,1.56-1.37,4.1-4,7.61-7.89,3.51-3.89,6.3-7.51,8.36-10.87.3-.61.78-1.33,1.43-2.17.65-.84,1.89-1.97,3.72-3.38,1.83-1.41,3.66-2.12,5.5-2.12.99,0,1.49.27,1.49.8,0,.15-.12.42-.35.8-.3.61-1.16,2.14-2.57,4.58-1.41,2.44-2.73,4.75-3.95,6.92-1.22,2.18-2.52,4.54-3.89,7.09s-2.46,4.75-3.26,6.58c-.8,1.83-1.2,3.06-1.2,3.66,0,.46.19.69.57.69,1.14,0,3.93-2.21,8.35-6.64,3.35-3.51,7.28-7.82,11.79-12.93.23-.23.42-.35.57-.35s.23.15.23.46c0,1.45-.57,2.86-1.71,4.24-7.48,8.32-13.81,14.84-19,19.57Z"/>
        <path class="cls-1" d="m267.87,83.08c-1.38,3.74-3.55,6.88-6.53,9.44-2.97,2.56-5.74,4.29-8.3,5.21-2.56.91-4.86,1.37-6.92,1.37-5.57,0-8.36-2.18-8.36-6.52s2.44-8.43,7.33-12.01c2.29-1.68,4.77-2.79,7.44-3.32.38,0,.57.15.57.46,0,.15-.08.31-.23.46-1.91,1.45-3.72,3.7-5.44,6.75-1.71,3.05-2.57,5.72-2.57,8.01s.95,3.44,2.86,3.44c1.53,0,3.03-.63,4.52-1.89,1.49-1.26,2.61-2.53,3.38-3.83l1.15-1.83c1.52-2.44,2.8-6.33,3.83-11.67,1.03-5.34,1.7-10.07,2-14.19l.34-6.18c0-.61-.11-.91-.34-.91l-.46.23-11.33,13.27c-.84.99-1.41,1.49-1.71,1.49-.38,0-.57-.26-.57-.8,0-.99.26-1.76.8-2.29l1.03-1.26c8.7-9.77,13.65-15.68,14.88-17.74,1.15-1.76,2.82-3.28,5.03-4.58,2.13-1.22,4.65-1.83,7.55-1.83.76,0,1.15.31,1.15.92,0,.38-.31.72-.92,1.03-.23.08-.51.25-.85.51-.35.27-.96.9-1.83,1.89-.88.99-1.66,2.14-2.35,3.43-.68,1.3-1.29,3.11-1.83,5.44-.53,2.32-.8,4.9-.8,7.72,0,8.77-.84,15.37-2.52,19.8Z"/>
        <path class="cls-1" d="m292.02,78.85c3.2-3.2,7.44-7.82,12.7-13.84.23-.23.42-.35.57-.35s.23.15.23.46c0,1.45-.57,2.86-1.72,4.24-5.65,6.26-10.64,11.48-14.99,15.68-9.15,8.85-15.22,13.27-18.19,13.27-1.07,0-1.6-.69-1.6-2.06,0-1.6.61-4,1.83-7.21,1.22-3.21,2.44-6.03,3.66-8.47l1.83-3.55c1.75-3.13,4.65-8.47,8.69-16.02,4.04-7.56,7.95-14.68,11.73-21.4,3.77-6.71,7.34-12.78,10.7-18.19h-9.04c-.76,0-1.15-.19-1.15-.57s.3-.76.91-1.15c.61-.38,1.26-.57,1.95-.57,1.68,0,4.61-.03,8.81-.11,3.74-5.88,6.94-10.53,9.61-13.96,2.36-2.97,4-4.46,4.92-4.46.53,0,.8.34.8,1.03,0,1.6-1.45,5.03-4.35,10.3l-3.89,7.09h11.79c.68,0,1.03.19,1.03.57,0,1.22-1.11,1.83-3.32,1.83h-10.75c-17.62,33.41-26.89,50.92-27.8,52.52-3.21,5.88-4.81,9.69-4.81,11.44,0,.53.19.8.57.8,1.07,0,4.16-2.44,9.27-7.33Z"/>
      </g>
      <g>
        <path class="cls-2" d="m148.51,209.39l15-22.39c1.18-2.13,7.91-5.19,7.91-6.93,0-1.18,2.71-4.11,2.19-4.98-.51-.87-10.85,1.05-11.4.74l-1.62-.06c-.71-.39-1.46-.31-1.46-.78,0-.31,1.19-.48,1.47-.72.27-.24,1.31-.38,1.63-.46l1.46-.67c3.01-.44,8.91-.93,23.69-1.21,7.24-.14,13.07.2,17.49.59,1.18,0,1.77.51,1.77,1.54,0,.24-.12.67-.35,1.3-2.6,6.54-5.24,11.66-7.92,15.36-.39.39-.83.59-1.3.59-.71,0-1.06-.51-1.06-1.54.39-1.5.59-3.11.59-4.84,0-6.46-3.23-9.69-9.69-9.69h-.47c-4.02,0-7.67.67-9.4,2.88-4.02,4.96-11.16,13.28-17.85,25.41-.79,1.34-1.75,3.17-2.93,5.22l20.26.52c.79,0,1.18.24,1.18.71s-.34,1.02-1,1.65c-.67.63-1.4.99-2.19,1.06-4.88.24-10.32.36-16.3.36l-4.48.14c-11.11,20.16-13.34,22.98-15.46,30.14-.59,4.05-2.78,4.49-2,10.73.3,2.42,3.13,6.1,7.31,6.1,1.73,0,2.78-.31,4.83-.98,2.05-.67,4.55-1.85,7.5-3.54,2.95-1.69,6.28-4.39,9.98-8.09,3.7-3.7,7.48-8.19,11.34-13.47.47-.87,1.18-1.3,2.13-1.3.63,0,.94.32.94.95,0,.16-.08.47-.24.94-3.78,9.69-8.59,18.35-14.41,25.99-.47,1.1-1.65,1.81-3.54,2.13-6.46.31-13.27.46-20.44.47-18.67.02-5.89-15.15-13.4-5.39-.94-.08-1.46-3.66-1.46-4.68,0-.63-6.24,6.34-5.93,5.7,4.49-10.08,12.95-25.4,25.4-45.96l2.24-3.54Z"/>
        <path class="cls-2" d="m180.34,176.13c-2.99,1.5-7.5,7.01-13.53,16.54-6.02,9.53-11.28,18.67-15.77,27.41l-6.85,13.23c-11.03,21.74-18.87,35.36-23.51,40.88-7.01,8.11-13.39,12.17-19.14,12.17-1.81,0-2.72-.31-2.72-.94,0-.24.16-.53.47-.89.31-.35.63-.65.94-.89l.35-.24c3.47-2.6,8.05-8.33,13.76-17.19,5.71-8.86,10.53-17.07,14.47-24.63l5.91-11.22c4.65-8.58,9.11-16.26,13.41-23.04,4.29-6.77,7.82-11.93,10.57-15.48,2.76-3.54,5.21-6.45,7.27-8.8,1.31-1.49,2.22-2.17,3.68-3.36l2.29-2.02c.24-.24.35-.47.35-.71,0-.79-1.26-1.18-3.78-1.18-2.36,0-4.71.65-7.03,1.95-2.32,1.3-4.29,2.86-5.91,4.67-1.62,1.81-3.05,3.62-4.31,5.44-1.26,1.81-2.21,3.35-2.84,4.61l-.94,2.01c-.4,1.26-.87,1.89-1.42,1.89-1.34,0-2.01-1.73-2.01-5.2,0-5.98,2.6-10.57,7.8-13.76,5.2-3.19,11.62-4.78,19.26-4.78s11.11.67,11.11,2.01c0,.47-.63.99-1.89,1.54Z"/>
      </g>
      <g>
        <polygon class="cls-2" points="207.91 320.15 190.99 337.1 164.72 302.13 138.45 337.1 121.54 320.15 100.73 341.02 128.38 396.3 145.44 396.3 151.35 396.3 178.1 396.3 184.01 396.3 201.07 396.3 228.72 341.02 207.91 320.15"/>
        <g>
          <polygon class="cls-3" points="164.72 306.98 138.74 341.57 147.88 393.39 181.57 393.39 190.71 341.57 164.72 306.98"/>
          <polygon class="cls-3" points="138.81 341.59 121.54 324.27 104.27 341.59 130.18 393.39 147.88 393.39 138.81 341.59"/>
          <polygon class="cls-3" points="207.91 324.27 190.63 341.59 181.57 393.39 199.27 393.39 225.18 341.59 207.91 324.27"/>
        </g>
      </g>
    </g>
  </g>
</svg>