<?xml version="1.0" encoding="UTF-8"?>
<svg id="Layer_2" data-name="Layer 2" xmlns="http://www.w3.org/2000/svg" viewBox="0 0 360 360">
  <defs>
    <style>
      .cls-1 {
        fill: #2bb673;
      }

      .cls-1, .cls-2, .cls-3 {
        stroke-width: 0px;
      }

      .cls-2 {
        fill: #231f20;
      }

      .cls-3 {
        fill: #fff;
      }
    </style>
  </defs>
  <g id="Layer_1-2" data-name="Layer 1">
    <g>
      <rect class="cls-2" width="360" height="360"/>
      <g>
        <path class="cls-3" d="m52.56,210.54l-10.94,6.17c-2.41,4.08-4.83,7.94-7.26,11.57s-4.58,6.63-6.46,9c-1.88,2.37-3.5,4.18-4.87,5.43-1.37,1.25-2.38,1.87-3.04,1.87-.88,0-1.59-.29-2.14-.88-.55-.59-.82-1.28-.82-2.08,0-2.96,1.67-6.67,5-11.12,3.33-4.46,8.6-9.19,15.81-14.21,3.12-6,5.7-11.46,7.73-16.36,2.03-4.91,3.58-9.1,4.65-12.58,1.07-3.48,1.82-6.28,2.24-8.39.42-2.11.64-3.45.64-4.03,0-1.18-.45-1.77-1.36-1.77-.74,0-1.83.43-3.27,1.27-1.44.85-3,2.12-4.67,3.8-1.67,1.69-3.23,3.64-4.69,5.86-1.45,2.19-2.77,4.65-3.97,7.38-1.19,2.73-2.11,5.24-2.75,7.54-.64,2.3-.97,4.15-.97,5.55,0,.36.05,1.14.16,2.34.25-.38.55-.85.9-1.4.36-.55.81-1.11,1.36-1.69.55-.58,1.12-1.06,1.73-1.44.36-.27.78-.5,1.27-.68.49-.18.74-.16.74.06,0,.16-.78,1.2-2.34,3.1-1.56,1.91-2.92,3.62-4.07,5.16-.66.88-1.54,1.7-2.63,2.47-1.1.77-1.99,1.15-2.67,1.15-.82,0-1.36-.38-1.62-1.15-.26-.77-.39-1.99-.39-3.66,0-4.03.69-8.51,2.08-13.44,1.38-4.93,3.24-9.26,5.57-12.99,1.89-2.96,4.21-5.64,6.95-8.04,2.74-2.4,5.41-4.27,8-5.61,2.59-1.34,4.63-2.01,6.11-2.01,1.81,0,3.21.57,4.19,1.71.99,1.14,1.48,2.71,1.48,4.71,0,.99-.12,2.1-.35,3.33s-.53,2.48-.88,3.74c-.36,1.26-.97,3.29-1.85,6.08-.88,2.8-1.45,4.65-1.73,5.55-.85,2.82-1.97,5.72-3.35,8.7-1.38,2.97-3.35,6.91-5.9,11.82l8.39-4.52v2.67Z"/>
        <path class="cls-3" d="m57.45,200.27c4.17-3.78,8.21-6.59,12.13-8.43,3.92-1.84,6.95-2.75,9.09-2.75.58,0,1.11.24,1.6.72.49.48.88,1.04,1.17,1.67.29.63.43,1.1.43,1.4,0,.49-.19.86-.58,1.09-.38.23-1.06.51-2.01.84.19.44.44,1,.74,1.69.3.69.53,1.24.7,1.67s.25.8.25,1.13c0,.66-.66,1.88-1.99,3.68-1.33,1.8-2.26,3.12-2.8,3.97-.53.85-.8,1.89-.8,3.12,0,2.03.93,3.04,2.8,3.04s4.92-1.79,9-5.39v2.51c-6.94,7.7-11.9,11.55-14.88,11.55-1.07,0-1.83-.35-2.28-1.05-.45-.7-.68-1.73-.68-3.1,0-2.17.78-5.3,2.34-9.42-4,4.44-6.98,7.6-8.92,9.48-1.95,1.88-3.55,2.82-4.81,2.82-.6,0-1.36-.52-2.26-1.56-.9-1.04-1.71-2.39-2.41-4.05-.7-1.66-1.05-3.38-1.05-5.16,0-1.29.12-2.36.37-3.23s.73-1.75,1.44-2.65c.71-.91,1.85-2.1,3.41-3.58Zm19.69-4.52c-7.13,3.26-12.2,6.03-15.23,8.3-3.03,2.28-4.54,4.62-4.54,7.03,0,.88.15,1.6.45,2.16.3.56.71.84,1.23.84.3,0,.84-.19,1.6-.58,2.88-1.7,5.51-3.91,7.89-6.64,2.38-2.73,5.25-6.43,8.59-11.12Z"/>
        <path class="cls-3" d="m105.76,209.23l-7.32,6.21c-3.48,3.04-5.81,4.56-6.99,4.56-1.07,0-2.19-1.23-3.37-3.68-1.18-2.45-1.77-4.6-1.77-6.43,0-1.56.24-2.88.72-3.97s1.31-2.49,2.49-4.21c1.67-2.33,3.27-4.3,4.81-5.92s2.89-2.87,4.07-3.76c1.18-.89,2-1.34,2.47-1.34.74,0,1.46.38,2.16,1.15.7.77,1.05,1.56,1.05,2.38,0,.52-.38,1.36-1.13,2.51-.75,1.15-1.95,2.61-3.58,4.38s-3.9,3.88-6.8,6.35l-.78,2.26c-.22.44-.33.82-.33,1.15,0,.74.37,1.11,1.11,1.11s2.57-.97,5.41-2.92,5.91-4.56,9.23-7.85c1.29-1.29,2.36-2.43,3.21-3.41.85-.99,1.62-1.91,2.3-2.78.69-.86,1.25-1.51,1.71-1.95.45-.44.86-.67,1.21-.7.68-.08,1.22.21,1.6.86.38.66.58,1.63.58,2.92,0,.74-.33,1.67-.99,2.77-.66,1.11-1.89,3-3.7,5.67-1.81,2.67-3.61,5.44-5.41,8.3-1.8,2.86-3.63,6.09-5.49,9.68.08-.08.93-.9,2.53-2.47s3.3-3.19,5.08-4.89c1.78-1.7,3.25-3.06,4.4-4.09,1.15-1.03,2.59-2.23,4.32-3.6v2.75c-3.7,3.97-7.05,7.74-10.05,11.31-3,3.56-5.32,6.41-6.95,8.55-1.63,2.14-2.58,3.38-2.86,3.74-.74.96-1.4,1.86-1.99,2.69-.59.83-1.08,1.48-1.48,1.93-.4.45-.72.68-.97.68-.58,0-1.09-.57-1.54-1.71-.45-1.14-.68-2.15-.68-3.02,0-.79.15-1.49.45-2.1,1.97-4.44,6.4-12.16,13.28-23.15Z"/>
        <path class="cls-3" d="m169.61,207.46v2.67c-4.6,5.13-8.83,9.35-12.68,12.68-3.85,3.33-7.61,5.89-11.29,7.69-3.67,1.79-7.22,2.69-10.65,2.69-2.96,0-5.5-.59-7.63-1.77-2.12-1.18-3.73-2.9-4.81-5.16-1.08-2.26-1.62-4.94-1.62-8.04,0-2.44.39-5.02,1.17-7.75.78-2.73,1.91-5.48,3.39-8.26,1.48-2.78,3.3-5.65,5.45-8.61,2.15-2.96,4.68-6.07,7.59-9.33,3.01-3.37,5.99-6.28,8.92-8.74,2.93-2.45,5.59-4.38,7.98-5.78,2.38-1.4,4.6-2.44,6.64-3.12,2.04-.68,3.73-1.03,5.08-1.03s2.54.33,3.5.99c.96.66,1.7,1.62,2.22,2.88.52,1.26.78,2.71.78,4.36,0,3.1-1.06,6.54-3.17,10.34-2.11,3.8-4.74,7.46-7.89,11-3.15,3.54-6.16,6.42-9.02,8.66-2.86,2.23-4.93,3.35-6.19,3.35-.85,0-1.64-.34-2.36-1.01-.73-.67-1.09-1.43-1.09-2.28,0-1.56.83-3.45,2.49-5.67,1.66-2.22,3.47-4.26,5.43-6.11,1.96-1.85,3.13-2.78,3.52-2.78.19,0,.29.08.29.25,0,.25-.14.67-.43,1.28-.29.6-.43.97-.43,1.11,0,.22.08.33.25.33.47,0,1.81-1.25,4.03-3.74s4.26-5.24,6.11-8.24c1.85-3,2.78-5.46,2.78-7.38,0-.79-.17-1.4-.51-1.83-.34-.42-.86-.64-1.54-.64-1.92,0-4.83,1.56-8.74,4.67-3.91,3.11-7.91,7.07-12.01,11.88s-7.52,9.78-10.26,14.9c-2.74,5.13-4.11,9.63-4.11,13.53,0,2.25.34,4.13,1.01,5.63.67,1.51,1.66,2.67,2.96,3.5,1.3.82,2.87,1.23,4.71,1.23,3.97,0,8.48-1.55,13.53-4.65,5.04-3.1,10.59-7.66,16.65-13.69Z"/>
        <path class="cls-3" d="m174.05,200.27c4.17-3.78,8.21-6.59,12.13-8.43,3.92-1.84,6.95-2.75,9.09-2.75.58,0,1.11.24,1.6.72s.88,1.04,1.17,1.67c.29.63.43,1.1.43,1.4,0,.49-.19.86-.58,1.09-.38.23-1.05.51-2.01.84.19.44.44,1,.74,1.69.3.69.54,1.24.7,1.67s.25.8.25,1.13c0,.66-.67,1.88-1.99,3.68-1.33,1.8-2.26,3.12-2.8,3.97-.54.85-.8,1.89-.8,3.12,0,2.03.93,3.04,2.8,3.04s4.92-1.79,9-5.39v2.51c-6.93,7.7-11.9,11.55-14.88,11.55-1.07,0-1.83-.35-2.28-1.05-.45-.7-.68-1.73-.68-3.1,0-2.17.78-5.3,2.34-9.42-4,4.44-6.98,7.6-8.92,9.48-1.95,1.88-3.55,2.82-4.81,2.82-.6,0-1.36-.52-2.26-1.56-.9-1.04-1.71-2.39-2.41-4.05-.7-1.66-1.05-3.38-1.05-5.16,0-1.29.12-2.36.37-3.23s.73-1.75,1.44-2.65c.71-.91,1.85-2.1,3.41-3.58Zm19.69-4.52c-7.13,3.26-12.2,6.03-15.23,8.3-3.03,2.28-4.54,4.62-4.54,7.03,0,.88.15,1.6.45,2.16.3.56.71.84,1.23.84.3,0,.84-.19,1.6-.58,2.88-1.7,5.51-3.91,7.89-6.64,2.38-2.73,5.25-6.43,8.59-11.12Z"/>
        <path class="cls-3" d="m203.25,208.78v-.99c7.07-7.46,11.94-12.68,14.6-15.66.6-3.37,2.06-5.06,4.36-5.06.58,0,1.19.17,1.85.49l.25.78c-.11.33-.16.8-.16,1.4,0,.52.2,1.49.6,2.9.4,1.41.71,2.6.93,3.56.22.96.33,2.04.33,3.25,0,1.81-.41,3.54-1.23,5.2s-2.01,3.25-3.58,4.77c-1.56,1.52-3.58,3.08-6.04,4.67.99.16,1.77.25,2.34.25,1.12,0,2.34-.28,3.64-.84,1.3-.56,2.63-1.32,3.99-2.26,1.36-.95,2.94-2.17,4.75-3.68v2.75c-3.51,3.43-6.65,6.02-9.42,7.79-2.77,1.77-5.15,2.65-7.15,2.65-2.58,0-4.96-1.1-7.15-3.29-1.29-1.32-2.09-2.58-2.41-3.78s-.47-2.84-.47-4.89Zm15.34-6.29l-.74-6c-1.7,1.92-5.33,5.61-10.9,11.06,1.64.36,2.77.84,3.37,1.44.6.6,1.45,1.77,2.55,3.5,1.86-.77,3.3-1.82,4.3-3.15,1-1.33,1.5-3.15,1.5-5.45,0-.27,0-.52-.02-.74-.01-.22-.03-.44-.06-.66Z"/>
        <path class="cls-3" d="m260.44,207.63v2.59c-2.38,2.44-4.45,4.43-6.19,5.98-1.74,1.55-3.26,2.72-4.56,3.52s-2.41,1.19-3.31,1.19c-2.14,0-3.21-1.26-3.21-3.78,0-2.03.66-4.38,1.99-7.05,1.33-2.67,3.24-5.82,5.74-9.44-1.23.69-2.4,1.47-3.5,2.36s-2.07,1.82-2.92,2.79c-.85.97-1.56,1.8-2.14,2.49-1.78,2-3.5,4.05-5.14,6.15s-2.75,3.46-3.33,4.09c-.58.63-1.12.95-1.64.95-2.14,0-3.21-2.63-3.21-7.89,0-1.73.26-3.63.78-5.71.52-2.08,1.92-4.84,4.19-8.26,4.8-7.18,8.9-13.05,12.31-17.62,3.41-4.56,6.24-8.02,8.49-10.36,2.25-2.34,3.75-3.49,4.52-3.43.96.08,1.73.27,2.32.58.59.3.88.64.88,1.03,0,.69-.47,1.82-1.42,3.39-.95,1.58-2.57,4.04-4.87,7.38-2.49,3.54-4.26,6.02-5.3,7.46-1.04,1.44-2.6,3.48-4.67,6.13-2.07,2.65-3.96,5-5.67,7.07-1.71,2.07-3.67,4.31-5.86,6.72v4.93c3.67-4.08,6.85-7.43,9.54-10.03,2.69-2.6,4.96-4.57,6.83-5.9,1.86-1.33,3.23-1.99,4.11-1.99.82,0,1.59.49,2.3,1.46.71.97,1.07,1.78,1.07,2.41,0,.27-.14.62-.41,1.03-1.97,2.36-3.54,4.31-4.71,5.86-1.17,1.55-2.06,2.93-2.69,4.15-.63,1.22-.95,2.27-.95,3.14,0,1.29.62,1.93,1.85,1.93,1.32,0,4.23-1.77,8.76-5.3Z"/>
        <path class="cls-3" d="m286.87,207.54v2.75c-1.81,1.64-3.26,2.74-4.36,3.29-1.1.55-2.67.77-4.73.66-3.56,4.22-6.7,6.33-9.42,6.33-1.54,0-2.93-.51-4.19-1.52-1.26-1.01-2.27-2.4-3.02-4.15-.75-1.75-1.13-3.71-1.13-5.88,0-1.75.58-3.7,1.75-5.84,1.17-2.14,2.67-4.13,4.52-5.98,1.85-1.85,3.83-3.34,5.94-4.48,2.11-1.14,4.07-1.71,5.88-1.71,1.29,0,2.3.2,3.04.6.74.4,1.11.95,1.11,1.67,0,.55-.32,1.18-.95,1.89,1.04.22,1.75.58,2.14,1.09.38.51.58,1.43.58,2.78s-.31,2.97-.92,4.97c-.62,2-1.46,3.88-2.53,5.63l.74.74h.62c.47,0,.92-.12,1.38-.35.45-.23.86-.48,1.21-.74.36-.26,1.14-.84,2.34-1.75Zm-8.47-10.81c-2.28,1.37-4.22,2.61-5.84,3.72-1.62,1.11-2.99,2.23-4.11,3.37s-1.88,2.28-2.26,3.43c-.69,3.07-1.03,4.73-1.03,4.97,0,1.81,1.26,2.71,3.78,2.71,1.18,0,3.15-1.01,5.92-3.04-.47-1.29-.7-2.52-.7-3.7,0-1.73.36-3.49,1.07-5.28.71-1.79,1.77-3.86,3.17-6.19Z"/>
        <path class="cls-3" d="m306.16,204.83c-3.97,5.26-7,9-9.07,11.22-2.07,2.22-3.76,3.33-5.08,3.33-1.04,0-2-.43-2.88-1.29s-1.56-2.03-2.04-3.5c-.48-1.47-.72-3.04-.72-4.71,0-1.1.1-2.08.31-2.96.21-.88.6-1.84,1.17-2.9.58-1.05,1.34-2.2,2.28-3.43s2.1-2.63,3.47-4.19c.82-.96,1.51-1.77,2.08-2.43.56-.66,1.11-1.1,1.64-1.34.53-.23,1.4-.35,2.61-.35.88,0,1.71.12,2.51.35.79.23,1.19.47,1.19.72,0,.49-.4,1.38-1.21,2.67-.81,1.29-2.11,2.86-3.91,4.71-1.8,1.85-3.87,3.67-6.23,5.45-.52,1.62-.78,2.85-.78,3.7,0,1.18.45,1.77,1.36,1.77.33,0,.88-.28,1.64-.84.77-.56,2.06-1.64,3.88-3.25s3.46-3.02,4.91-4.26c1.07-.93,2.31-2.32,3.72-4.17,1.41-1.85,2.56-3.24,3.43-4.17,2.03-2.14,3.41-3.53,4.15-4.17.74-.64,1.45-.97,2.14-.97s1.1.21,1.34.62c.23.41.35,1.25.35,2.51,0,.58-.06,1.04-.17,1.4-.11.36-.34.82-.68,1.38-.34.56-1.04,1.6-2.08,3.1-1.04,1.51-2.28,3.29-3.7,5.34-.77,1.1-1.44,2.3-2.01,3.6-.58,1.3-.86,2.28-.86,2.94,0,1.42.56,2.14,1.69,2.14.93,0,2.01-.38,3.25-1.15,1.23-.77,3.12-2.15,5.67-4.15v2.75c-3.21,2.96-5.58,5.11-7.11,6.46s-2.86,2.36-3.99,3.04c-1.12.69-2.19,1.03-3.21,1.03-2.3,0-3.45-1.37-3.45-4.11,0-1.04.34-2.45,1.03-4.21s1.79-4.32,3.33-7.67Z"/>
        <path class="cls-3" d="m333.62,186.29h1.77c1.45-2.6,2.77-4.45,3.95-5.53,1.18-1.08,2.52-1.62,4.03-1.62s2.26.34,2.26,1.03c0,.33-.59,1.22-1.77,2.67-1.18,1.45-2.07,2.67-2.67,3.66.93.11,1.76.21,2.49.29.73.08,1.29.15,1.71.21-1.56,2.91-3.52,5.88-5.88,8.92-.77-.05-1.41-.1-1.93-.14s-1.05-.08-1.58-.12-1.19-.09-1.95-.14c-1.48,2.38-2.72,4.52-3.72,6.39-1,1.88-1.77,3.6-2.3,5.16-.53,1.56-.8,3.04-.8,4.44,0,1.89.75,2.84,2.26,2.84,1.04,0,2.41-.56,4.09-1.67,1.69-1.11,3.94-2.82,6.76-5.12v2.75c-7.4,8.03-12.87,12.05-16.41,12.05-1.23,0-2.23-.48-2.98-1.44s-1.13-2.19-1.13-3.7c0-1.01.21-2.22.64-3.62.42-1.4,1.18-3.51,2.28-6.33-.38.33-.75.65-1.09.97-.34.32-.66.6-.95.86-.29.26-.6.53-.92.82-.33.29-.66.58-.99.88v-2.84c2.88-2.41,6.36-6.65,10.44-12.71-.41-.03-.79-.05-1.15-.06-.36-.01-.78-.02-1.28-.02-1.62,0-2.82.11-3.62.33-.33.08-.64.17-.92.27s-.49.14-.6.14-.17-.08-.17-.25c0-.9.56-2.26,1.69-4.07.91-1.53,1.76-2.67,2.57-3.41.81-.74,1.79-1.24,2.96-1.5,1.17-.26,2.8-.39,4.91-.39Z"/>
      </g>
      <g>
        <path class="cls-3" d="m131.67,124.16c-.4,1.48-.61,3.44-.64,5.89h-1.47v-1.71c0-1.11-.15-1.86-.45-2.26-.3-.4-1.08-.82-2.34-1.27s-2.58-.67-3.98-.67c-2.27,0-4.06.58-5.36,1.73s-1.95,2.63-1.95,4.43c0,1.14.27,2.11.8,2.93.53.82,1.25,1.41,2.15,1.77.9.36,2.82.68,5.75.96,2.93.28,4.91.66,5.94,1.13s1.86,1.22,2.47,2.26c.62,1.04.93,2.27.93,3.69,0,2.86-1.19,5.32-3.58,7.38s-5.57,3.09-9.55,3.09c-1.36,0-2.74-.14-4.13-.42-1.39-.28-2.78-.69-4.19-1.23.26-1.71.38-3.9.36-6.57h1.45v1.07c0,1.38.07,2.23.21,2.56s.48.68,1,1.04c.78.55,1.71.98,2.79,1.27s2.25.44,3.5.44c2.69,0,4.76-.63,6.23-1.9,1.46-1.27,2.2-2.87,2.2-4.82,0-1.14-.25-2.1-.75-2.89s-1.19-1.38-2.09-1.76c-.9-.38-2.55-.68-4.97-.87-3.21-.26-5.4-.64-6.55-1.15-1.15-.51-2.05-1.32-2.71-2.42-.65-1.1-.98-2.47-.98-4.1,0-2.77,1-5.04,3.01-6.8,2-1.76,4.78-2.64,8.32-2.64,1.42,0,2.85.15,4.28.46,1.43.31,2.86.77,4.3,1.4Z"/>
        <path class="cls-3" d="m141.86,136.51l2.79-2.45c.65-.61,1.3-1.03,1.93-1.26.63-.23,1.4-.34,2.29-.34,1.58,0,2.95.32,4.1.95s1.96,1.44,2.41,2.43.67,2.67.67,5.04l-.13,6.31c0,1.42.06,2.55.17,3.37.04.34.16.6.35.77.19.17.61.28,1.25.34l1.62.17v1.24c-1.38-.1-2.72-.15-4.03-.15-1.12,0-2.24.05-3.35.15.26-3.57.38-7.08.38-10.54,0-2.32-.15-3.89-.44-4.71-.29-.82-.81-1.48-1.57-1.96-.75-.48-1.71-.73-2.86-.73s-2.25.28-3.22.84c-.97.56-1.64,1.21-2,1.95-.26.53-.38,1.78-.38,3.75v3.71c0,3.38.08,5.25.23,5.61.16.36.73.58,1.71.66l1.86.17v1.24c-2.22-.1-4-.15-5.35-.15s-3.25.05-5.52.15v-1.24l1.34-.17c.84-.1,1.36-.22,1.58-.35.21-.14.35-.44.43-.93.1-.77.15-2.49.15-5.16v-14.38c0-3.79-.1-5.92-.3-6.37-.13-.31-.7-.47-1.73-.47h-1.47v-1.3c2.2-.23,3.97-.55,5.29-.96l1.75-.6c.23,0,.34.15.34.45l-.06.87-.13,3.83c-.07,1.93-.11,3.43-.11,4.49v5.71Z"/>
        <path class="cls-3" d="m161.08,142.84c0-1.96.45-3.74,1.36-5.32.91-1.58,2.19-2.83,3.83-3.72,1.64-.9,3.51-1.34,5.6-1.34,3.03,0,5.45.9,7.27,2.69s2.73,4.18,2.73,7.17c0,3.53-1.19,6.33-3.56,8.4-2.12,1.86-4.66,2.79-7.61,2.79s-5.16-.96-6.94-2.87-2.68-4.51-2.68-7.79Zm4.01-1.51c0,2.93.6,5.44,1.8,7.53,1.2,2.09,2.93,3.13,5.19,3.13,1.72,0,3.11-.65,4.17-1.96s1.59-3.29,1.59-5.96c0-2.15-.31-4.01-.94-5.58-.63-1.57-1.45-2.72-2.47-3.44-1.02-.72-2.17-1.08-3.43-1.08-1.12,0-2.14.29-3.04.85-.9.57-1.57,1.33-1.99,2.28-.58,1.3-.87,2.7-.87,4.23Z"/>
        <path class="cls-3" d="m191.32,136.31v8.37c0,2.18.07,3.57.21,4.19.14.61.43,1.09.86,1.43.43.34.98.51,1.65.51.41,0,.81-.08,1.21-.25.39-.16.78-.41,1.16-.74l.62.74-2.08,2.44c-.46.16-.9.28-1.33.36s-.84.13-1.24.13c-1.06,0-1.95-.19-2.68-.56s-1.26-.87-1.59-1.47c-.33-.6-.49-1.52-.49-2.74l.08-4.12v-8.1c-1.09,0-2.23.05-3.39.15v-.92c1.22-.47,2.35-.96,3.39-1.47-.01-2.03-.07-4.24-.17-6.61,1.66-.7,2.85-1.26,3.58-1.68l.56.43c-.11,1.11-.23,3.73-.36,7.87,1.73,0,3.15-.02,4.24-.06l1.71-.09-.24,2.2-.87-.02-4.09.02h-.75Z"/>
        <path class="cls-3" d="m214.05,135.92c3.06.2,5.26.91,6.61,2.12,1.35,1.22,2.03,2.9,2.03,5.05,0,2.72-1.13,5.06-3.4,7.03s-5.15,2.96-8.65,2.96l-1.68-.05c-1.42-.07-2.62-.1-3.6-.1-.71,0-1.58.03-2.62.09l-1.77.06v-.96c.88-.43,1.4-.75,1.57-.98.16-.23.26-.6.29-1.13.1-1.69.15-3.62.15-5.78v-13.29c0-3.55-.13-5.57-.38-6.04-.31-.55-1.07-.83-2.28-.83h-1.45v-1.34h1.77l1.96.07c1.02.05,1.83.07,2.41.07.9,0,2.67-.04,5.31-.13l3.11-.08c2.45,0,4.27.43,5.48,1.28,1.52,1.08,2.28,2.62,2.28,4.6,0,1.63-.54,3.05-1.61,4.28-1.07,1.23-2.91,2.25-5.51,3.08Zm-7.08-.6c.71.04,1.37.06,1.96.06,2.83,0,4.86-.5,6.08-1.5,1.22-1,1.83-2.45,1.83-4.34,0-1.63-.51-2.89-1.54-3.76-1.02-.87-2.66-1.31-4.91-1.31-1,0-2.08.09-3.24.28-.13,1.73-.19,4.36-.19,7.87v2.71Zm0,15.63c1.32.2,2.42.3,3.28.3,2.52,0,4.47-.67,5.85-2.02,1.39-1.34,2.08-3.17,2.08-5.47,0-1.54-.31-2.8-.92-3.81s-1.47-1.73-2.57-2.2-2.86-.69-5.28-.69c-.72,0-1.54.02-2.45.06v7.57l.02,2.69c.04.97.06,1.71.06,2.22,0,.38-.03.83-.08,1.34Z"/>
        <path class="cls-3" d="m225.42,164.51l1-3.33h.49c.38.46.77.81,1.15,1.04.38.23.78.35,1.17.35.88,0,1.69-.43,2.41-1.28.73-.85,1.84-3.23,3.35-7.14-.62-1.65-1.88-4.79-3.75-9.44l-1.98-4.88-1.6-3.73c-.5-1.32-1.24-1.98-2.24-1.98h-.85v-1.24c1.48.1,2.79.15,3.92.15.88,0,2.93-.05,6.16-.15v1.24h-1.58c-.54,0-.94.09-1.18.28-.25.18-.37.41-.37.68,0,.23.13.72.41,1.47,1.44,3.95,3.13,8.18,5.08,12.7,1.87-4.13,3.51-8.12,4.9-11.95.41-1.12.62-1.8.62-2.05,0-.45-.48-.75-1.45-.89l-1.58-.23v-1.24c1.68.1,3.17.15,4.48.15,1.24,0,2.48-.05,3.73-.15v1.24h-.75c-.33,0-.66.1-1,.29-.34.19-.62.46-.83.8-.46.72-1.77,3.49-3.95,8.29-.6,1.32-2.12,4.9-4.57,10.74-2.16,4.92-3.38,7.62-3.67,8.1-.55.94-1.26,1.66-2.13,2.17-.87.5-1.8.76-2.81.76-.41,0-.83-.06-1.27-.19s-.87-.31-1.31-.55Z"/>
      </g>
      <path class="cls-1" d="m205.15,163.99l.58.09c5.39,2.58,7.76,6.04,7.11,10.37l1.98,3.37,5.43.82c2.08.31,4.6,1.52,7.54,3.62,2.82-3.28,4.97-5.22,6.43-5.81l1.81.27c3.84,1.92,5.64,3.63,5.42,5.11l-16.74,16.68-4.58-2.54-.58-.09c-.2,1.32,3.93,4,12.38,8.05,6.17,5.64,8.99,10.19,8.47,13.65l-.27,1.81c-.42,2.83-3.93,5.61-10.52,8.35l-.09.58,2.46,12.16-.18,1.19-3.28,1.36-1.19-.18c-4.21-2.23-6.07-4.98-5.58-8.25-.82-.12-1.11-1-.87-2.62.18-1.21-1.68-2.51-5.6-3.92l-2.64,17.54-1.81-.27,2.73-18.15-2.34-.98-.73,4.86-1.37,1.01-1.01-1.37.91-6.05-4.58-2.54-.09.58.25,2.52c-1.21-.18-2.34.48-3.41,1.97-5.02-2.24-7.28-5.05-6.77-8.43-1.95-6.22-2.76-10.48-2.41-12.78.46-3.07,1.55-4.76,3.25-5.07l1.81.27c3.38,1.43,6.17,4.75,8.4,9.94,5.46,6.6,9.48,10.1,12.06,10.49l-5.22-18.76-.62-.09c-10.95-3.3-16.18-6.98-15.68-11.03l.45-3.01c.58-3.87,3.35-7.17,8.31-9.9l.09-.58-2.78-10.35c.98-2.74,2-4.04,3.07-3.87Zm1.88,24.45l-1.16,3.53.35,1.9,3.04.46.09-.62-1.09-5.09-1.23-.19Zm9.64-2.25c.89,3.42,1.65,5.17,2.28,5.27l1.44-5.34-.62-.09-3.1.17Zm6.14,20.71c1.89,7.97,3.33,12.12,4.32,12.44l3.68-3.78c-2.45-5.34-5.12-8.22-8-8.66Z"/>
    </g>
  </g>
</svg>